<svg width="64" height="64" xmlns="http://www.w3.org/2000/svg">

 <g>
  <title>background</title>
  <rect fill="none" id="canvas_background" height="402" width="582" y="-1" x="-1"/>
 </g>
 <g>
  <title>Layer 1</title>
  <circle id="svg_2" r="32" fill="#deb887" cy="32" cx="32"/>
  <path opacity="0.2" id="svg_4" fill="#231F20" d="m39.5,37.153999l0,-14.307999c2.741001,-0.916 4.5,-2.322001 4.5,-3.900002c0,-2.761 -5.373001,-3.999999 -12,-3.999999s-12,1.238999 -12,3.999999c0,1.578001 1.759001,2.983002 4.5,3.900002l0,14.306999c-2.740999,0.916 -4.5,2.321999 -4.5,3.900002c0,2.476997 4.327,4.528 10,4.924999l0,7.075001l2,4l2,-4l0,-7.075001c5.673,-0.397999 10,-2.448002 10,-4.924999c0,-1.578003 -1.758999,-2.983002 -4.5,-3.899002z"/>
  <ellipse id="svg_6" ry="5" rx="12" fill="#009688" cy="39.053" cx="32"/>
  <path id="svg_8" fill="#009688" d="m44,16.947001c0,2.761 -5.373001,5 -12,5s-12,-2.239 -12,-5s5.372999,-4.000001 12,-4.000001s12,1.238001 12,4.000001z"/>
  <rect id="svg_10" y="20" x="25" width="14" height="20" fill="#009688"/>
  <polygon id="svg_12" points="30,51.053 32,55.053 34,51.053 34,41.053 30,41.053   " fill="#4f5d73"/>
  <ellipse id="svg_14" ry="1.438" rx="2" fill="#4F5D73" cy="41.241" cx="32"/>
 </g>
</svg>